<?xml version="1.0" encoding="utf-8"?>
<!-- Generator: Adobe Illustrator 28.1.0, SVG Export Plug-In . SVG Version: 6.00 Build 0)  -->
<svg version="1.1" id="Layer_1" xmlns="http://www.w3.org/2000/svg" xmlns:xlink="http://www.w3.org/1999/xlink" x="0px" y="0px"
	 viewBox="0 0 1405 410" style="enable-background:new 0 0 1405 410;" xml:space="preserve">
<style type="text/css">
	.st0{opacity:0.9;enable-background:new    ;}
	.st1{fill:#FFFFFF;}
	.st2{opacity:0.9;}
	.st3{enable-background:new    ;}
	.st4{fill:#F6BF9A;}
	.st5{fill:#F6C0A5;}
	.st6{fill:#5E7075;}
	.st7{fill:#00AEEF;}
	.st8{fill:#231F20;}
	.st9{fill:#BE1E2D;}
	.st10{fill:#1B75BC;}
	.st11{fill:#FBB040;}
	.st12{fill:none;stroke:#414042;stroke-width:5.48;stroke-linecap:round;stroke-linejoin:round;}
</style>
<g class="st0">
	<g>
		<path class="st1" d="M441.8,187.9h50.7c32.2,0,68.3,9.2,68.3,47.5c0,34.4-28.9,48.3-62,48.3h-1.8v38.1h-55.1V187.9z M498.4,249.7
			c9.4,0,13.9-5,13.9-11.3s-4.6-11.3-13.9-11.3h-1.5v22.6H498.4z"/>
	</g>
	<g>
		<path class="st1" d="M644.3,185.9c42,0,74.7,30.2,74.7,69s-32.7,69-74.7,69s-74.7-30.1-74.7-69S602.4,185.9,644.3,185.9z
			 M644.3,276.5c11.5,0,20.7-9.2,20.7-20.7c0-11.5-9.2-20.7-20.7-20.7s-20.7,9.2-20.7,20.7C623.6,267.3,632.9,276.5,644.3,276.5z"/>
	</g>
	<g>
		<path class="st1" d="M732.4,187.9h55.1v55.9l0.4,0.2l22.8-56h60.3l-31.6,62.1l34.2,71.8h-62l-23.7-63.1l-0.4,0.2v62.9h-55.1V187.9
			z"/>
	</g>
	<g>
		<path class="st1" d="M883.5,187.9h55.1v55.9l0.4,0.2l22.8-56h60.3l-31.6,62.1l34.2,71.8h-62L939,258.8l-0.4,0.2v62.9h-55.1V187.9z
			"/>
	</g>
	<g>
		<path class="st1" d="M1034.6,187.9h55.1v133.9h-55.1V187.9z"/>
	</g>
	<g>
		<path class="st1" d="M1106,187.9h50.1l39.4,57.2l0.4-0.2v-57h49.6v133.9h-50.1l-39.4-57.2l-0.4,0.2v57H1106V187.9z"/>
	</g>
	<g>
		<path class="st1" d="M1258.4,256c0-40.3,33.1-70.1,79.9-70.1c17.8,0,34,4.3,44.6,9.6v45.9c-10.7-4.6-27.4-9.1-39.8-9.1
			c-19.6,0-29.8,11.1-29.8,25.5c0,15.7,12.4,25.2,25.9,25.2c2.6,0,4.4-0.4,5.5-0.7v-6.8h-13.3v-30h54.8v66.2
			c-9.8,6.1-27.2,12.2-49.2,12.2C1288.8,323.9,1258.4,294.5,1258.4,256z"/>
	</g>
</g>
<g class="st2">
	<g class="st3">
		<g>
			<path class="st1" d="M750.4,371.1c6.5,4.2,13.1,5.8,16,5.8c2,0,2.5-0.8,2.5-1.6c0-0.9-0.6-1.3-1.5-1.6c-2.4-0.6-9.2-1.3-14.2-5.7
				c-2.6-2.3-4.3-5.5-4.3-10.2c0-9.8,7.6-16.5,19.9-16.5c5.9,0,12.9,1.6,17.4,3.8v16c-6.3-3.2-12.3-4.3-14.8-4.3
				c-2,0-2.5,0.7-2.5,1.5c0,1,0.7,1.4,1.6,1.7c2,0.6,8.8,1.4,13.6,5.2c3.3,2.7,4.9,6.1,4.9,10.5c0,9.4-7.6,15.9-20.4,15.9
				c-6.1,0-13.5-1.5-18.3-4V371.1z"/>
		</g>
	</g>
	<g class="st3">
		<g>
			<path class="st1" d="M807.3,342.1h19.2l18.6,48.8h-21.7l-1.7-6.4h-11.2l-1.9,6.4h-20L807.3,342.1z M818.5,372.3l-2.2-9.9h-0.1
				l-2.2,9.9H818.5z"/>
		</g>
	</g>
	<g class="st3">
		<g>
			<path class="st1" d="M836.5,342.1h21.7l7.2,25.9h0.1l7.7-25.9h19.6l-18.7,48.8h-19L836.5,342.1z"/>
		</g>
		<g>
			<path class="st1" d="M896.2,342.1h35.1v16.3h-15v2.6h12.1v11.6h-12.1v2.8h16v15.5h-36.1V342.1z"/>
		</g>
	</g>
	<g class="st3">
		<g>
			<path class="st1" d="M966,358.7h-13.6v-16.6h47.3v16.6h-13.6v32.2H966V358.7z"/>
		</g>
		<g>
			<path class="st1" d="M1005,342.1h20.1v15.1h10.1v-15.1h20.1v48.8h-20.1v-17.8h-10.1v17.8H1005V342.1z"/>
		</g>
		<g>
			<path class="st1" d="M1061.2,342.1h35.1v16.3h-15v2.6h12.1v11.6h-12.1v2.8h16v15.5h-36.1V342.1z"/>
		</g>
	</g>
	<g class="st3">
		<g>
			<path class="st1" d="M1115.1,342.1h21.4l4.9,22.7h0.1l4.1-22.7h13.6l4,22.7h0.1l4.9-22.7h19.4l-14.4,48.8h-17.7l-4.2-19h-0.1
				l-4.1,19h-17.8L1115.1,342.1z"/>
		</g>
	</g>
	<g class="st3">
		<g>
			<path class="st1" d="M1214.2,341.4c15.3,0,27.2,11,27.2,25.2s-11.9,25.2-27.2,25.2s-27.2-11-27.2-25.2S1198.9,341.4,1214.2,341.4
				z M1214.2,374.4c4.2,0,7.6-3.4,7.6-7.6s-3.4-7.6-7.6-7.6c-4.2,0-7.6,3.4-7.6,7.6S1210,374.4,1214.2,374.4z"/>
		</g>
		<g>
			<path class="st1" d="M1246.3,342.1h20c10,0,23.7,2.5,23.7,15.5c0,5.3-2.5,9-6.1,11.6l11.1,21.7H1274l-7.3-16h-0.3v16h-20.1V342.1
				z M1267.9,363.7c3.2,0,4.6-1.7,4.6-3.8c0-2.1-1.5-3.7-4.6-3.7h-1.5v7.5H1267.9z"/>
		</g>
		<g>
			<path class="st1" d="M1297.2,342.1h20.1v31.5h15.1v17.3h-35.2V342.1z"/>
		</g>
		<g>
			<path class="st1" d="M1337.6,390.9v-48.8h20.4c9.4,0,16.7,2.9,21.6,7.6c4.3,4.1,7.1,9.7,7.1,16.8c0,6.7-2.6,12.5-6.9,16.7
				c-5.1,4.9-12.4,7.7-21.6,7.7H1337.6z M1357.7,375h0.5c3.4,0,5.9-1.1,7.6-2.8c1.3-1.4,2.2-3.4,2.2-5.7c0-2.4-0.9-4.5-2.2-5.9
				c-1.4-1.5-3.7-2.6-7.4-2.6h-0.6V375z"/>
		</g>
	</g>
</g>
<g id="Layer_2_00000065036051918645041130000006874659912506813866_">
	<g id="Layer_1-2">
		<path class="st1" d="M57.5,295.5c-0.3,1.5-0.1,3,0.4,4.5l2.7,7.2c-1.4,1.2-2.5,2.9-2.9,4.7l-6.9,32c-0.4,2.1-0.1,4.2,0.9,6.1
			c-0.9,1.4-1.3,2.9-1.3,4.5v28.3c0,4.8,3.9,8.7,8.7,8.7l0,0h91c4.8,0,8.7-3.9,8.7-8.7l0,0v-14.2c0-3-1.5-5.7-4.1-7.3l8.4-5l37.4-22
			l5,13.5c0.3,0.8,0.8,1.6,1.4,2.3c-0.6,1.2-0.9,2.6-0.9,3.9v28.7c0,4.8,3.9,8.7,8.7,8.7l0,0h67.1c4.8,0,8.7-3.9,8.7-8.7l0,0v-9.9
			c0-3.9-2.6-7.3-6.3-8.3l-11.3-3.2c0.2-0.8,0.3-1.5,0.3-2.3v-65.1c0-1.5-0.4-3-1.2-4.3c0.8-1.3,1.2-2.8,1.2-4.3V240l0,0
			c1.2,0,2.5-0.3,3.6-0.8L387.9,188c0.8-0.4,1.6-0.9,2.2-1.6c2,1.1,4.3,1.4,6.5,0.7l5-1.4c0.7-0.2,1.4-0.5,2-0.9
			c0.7,0,1.5-0.1,2.2-0.3l5.8-1.7c0.7-0.2,1.4-0.5,2-0.9c0.7,0,1.5-0.1,2.2-0.3l5.7-1.6c0.7-0.2,1.4-0.5,2-0.9
			c0.8,0,1.5-0.1,2.2-0.3l5.6-1.6c0.6-0.2,1.2-0.4,1.7-0.7c2.5,2.5,6.3,3.2,9.6,1.7l9.3-4.2c4.3-2,6.3-7.1,4.3-11.4l-3.1-6.9
			l116.2-49c0.9-0.4,1.8-0.9,2.5-1.6l28.7-26.7c1.9-1.7,2.9-4.2,2.8-6.7c2.9-3.8,2.3-9.2-1.5-12.1c-1.5-1.2-3.4-1.8-5.3-1.8
			c-0.4,0-0.8,0-1.1,0.1l-43,5.7c-1,0.1-2,0.4-2.9,0.9l-111.3,57.9l-2.2-4.9c-1.4-3.1-4.5-5.1-7.9-5.1c-1.2,0-2.4,0.3-3.5,0.8
			l-9.3,4.1c-2.8,1.2-4.8,3.9-5,7c-0.6,0.2-1.2,0.4-1.7,0.7l-36,19.5c-2.1,1.1-3.7,3.1-4.3,5.4c-0.2,0.7-0.3,1.5-0.2,2.3l-95.2,29.8
			c0.1-0.6,0.2-1.1,0.2-1.7v-55.9l0,0c4.8,0,8.7-3.9,8.7-8.7v-12.8c0-1.2-0.3-2.5-0.8-3.6l-9.5-21l-2.5-5.5
			c-0.1-0.2-0.2-0.4-0.3-0.6c0.1-0.1,0.2-0.3,0.3-0.4l2.9-5.4l19.6-36.7c2.2-4.2,0.6-9.5-3.6-11.7c-1.2-0.7-2.6-1-4-1h-0.4l-105,5
			c-2.2,0.1-4.2,1-5.7,2.5l-0.3,0.3c-1.6-1.4-3.6-2.1-5.7-2.1H68.1c-4.8,0-8.7,3.9-8.7,8.7v139.1c0,2.3,0.9,4.5,2.6,6.1l0,0
			l-8.7,8.7l-3.4,3.4c-0.9,0.9-1.7,2.1-2.1,3.3l-13.4,39.4c-0.6,1.9-0.6,3.9,0.1,5.8l20.2,54.3l0.2,0.5
			C55.5,293.3,56.4,294.5,57.5,295.5z M42.6,234L42.6,234l20.2,54.3L42.6,234z M124.9,165.2l1,0.5l6.8,3l0,0l-6.8-3L124.9,165.2z
			 M97.5,153.2l31.5-31.5L97.5,153.2z M110.8,285.2L110.8,285.2z M108.2,279.8l0.2,0.9l0,0L108.2,279.8z M262.5,194.1l-22.2,22.1
			l-3.9,3.9l0,0l3.9-3.9L262.5,194.1z M129,68.8l4.7-4.7l0,0L129,68.8z M107.9,296.9l-3,3.1l-6.2,6.4l6.2-6.4L107.9,296.9z
			 M213.6,344.8l0.9,0.3l2.2,0.6l0,0l-2.2-0.6L213.6,344.8z M66,296.9l3.1,8.2l17.9,0.7l11.7-12l3.4-3.5l-3.4,3.5l-11.7,12
			l-17.9-0.7L66,296.9z M59.5,191.2l-3.4,3.4L46,224l10-29.4L59.5,191.2z M178.7,30.4l-0.8,0.8l-3.4,3.4l0,0l3.4-3.4L178.7,30.4z
			 M438.6,144.1l-1.7-3.8l0,0L438.6,144.1z M433.9,133.6l-5.7-12.7L433.9,133.6z M439.1,170.3l-20.3-45.3l0,0L439.1,170.3z"/>
		<polygon class="st4" points="408.7,162.9 413.5,173.3 419.2,171.7 414,160.5 		"/>
		<polygon class="st5" points="100.7,285.2 100.1,283.1 66,296.9 69.1,305.2 87,305.9 98.7,293.9 102.1,290.3 		"/>
		<polygon class="st6" points="446.6,140.7 449.7,147.7 566.1,98.6 594.8,71.9 		"/>
		<polygon class="st6" points="441.8,130.1 444.8,136.7 596.6,66.3 553.6,72 		"/>
		<polygon class="st6" points="441.8,151.1 434.1,134.1 428.2,120.8 418.9,125 439.2,170.3 448.5,166.1 		"/>
		<polygon class="st4" points="388.9,167.4 394.2,178.8 399.3,177.4 393.6,165.2 		"/>
		<polygon class="st4" points="397.5,163.4 403.5,176.2 409.3,174.5 403,160.8 		"/>
		<polygon class="st4" points="417.9,158.6 423.5,170.4 429,168.9 423.3,156.1 		"/>
		<polygon class="st4" points="404.5,153.9 406.9,159 412.2,156.5 416.1,154.7 421.5,152.2 412.7,132.4 376.6,151.9 384.1,163.6 
			386.3,161.9 404.9,148.2 408.5,145.6 410.3,149.5 406.8,152.2 		"/>
		<polygon class="st7" points="273,190.8 273,231.3 384.3,180.1 377.1,168.7 371.5,160 		"/>
		<polygon class="st8" points="214.5,372.4 214.5,382.8 281.7,382.8 281.7,372.8 217.3,354.8 214.5,354 		"/>
		<polygon class="st8" points="143.9,367.6 59.1,354.5 59.1,382.8 150.1,382.8 150.1,368.5 		"/>
		<polygon class="st9" points="214.5,345 264.3,359 264.3,293.9 236.4,293.9 227.7,293.9 112.1,293.9 110.8,293.9 104.8,300 
			98.6,306.4 90.5,314.7 78.8,314.2 66.2,313.7 59.2,345.7 142.2,358.6 150.1,353.9 158.7,348.8 197.5,326 205,321.5 208.1,329.8 
			213.6,344.8 		"/>
		<polygon class="st7" points="59.5,191.2 56.1,194.6 42.6,234 62.8,288.3 63,288.8 97.8,274.7 88.8,242.3 85.6,230.9 91.8,220.9 
			121.3,173.1 91,159.7 68.1,182.5 		"/>
		<polygon class="st10" points="240.3,216.2 236.4,220.1 236.4,223.9 236.4,285.2 264.3,285.2 264.3,243.5 264.3,193.5 262.5,194.1 
					"/>
		<polygon class="st10" points="108.2,279.8 109.7,285.2 119.3,285.2 227.7,285.2 227.7,228.7 227.7,220.1 225.2,219 129.3,176.6 
			95,232.3 105.9,271.4 		"/>
		<polygon class="st11" points="257.1,67.6 261.2,67.6 264.1,62.1 283.8,25.5 178.7,30.4 177.9,31.2 141.6,67.6 		"/>
		<polygon class="st11" points="129,68.8 137.6,60.1 166.7,31.1 68.1,31.1 68.1,170.3 82.5,156 89,149.4 129,109.4 129,80.2 		"/>
		<polygon class="st5" points="236.4,207.9 257.9,186.4 264.3,180.1 264.3,124.2 264.3,115.5 273,115.5 273,102.7 263.5,81.7 
			261,76.2 256.6,76.2 137.6,76.2 137.6,100.8 137.6,113 129,121.7 97.5,153.2 125.9,165.7 133.9,169.2 227.7,210.6 231.8,212.4 		
			"/>
		<line class="st12" x1="243.9" y1="93.8" x2="209.1" y2="101.7"/>
		<circle class="st1" cx="214.7" cy="237.6" r="4.3"/>
		<circle class="st1" cx="214.7" cy="254.9" r="4.3"/>
		<circle class="st1" cx="214.7" cy="272.2" r="4.3"/>
	</g>
</g>
</svg>
